<svg width="16" height="20" viewBox="0 0 16 20" fill="none" xmlns="http://www.w3.org/2000/svg">
<path fill-rule="evenodd" clip-rule="evenodd" d="M6.97436 1.43502C4.11018 1.75674 2.04811 4.28563 2.05128 6.39919C2.05128 7.33539 2.0417 8.06299 2.05128 8.99919C2.08097 10.3762 1.76575 12.2412 1.02564 13.3992C0.909894 13.5765 0.702887 13.7969 0.404623 14.0602C0.146976 14.2877 0 14.6108 0 14.9497V15.7992C0 16.1306 0.275517 16.3992 0.615385 16.3992H15.3846C15.7245 16.3992 16 16.1306 16 15.7992V14.9497C16 14.6108 15.853 14.2877 15.5954 14.0602C15.2971 13.7969 15.0901 13.5765 14.9744 13.3992C14.2343 12.2412 13.919 10.3762 13.9487 8.99919C13.9583 8.06299 13.9487 7.33539 13.9487 6.39919C13.9519 4.28563 11.8898 1.75674 9.02564 1.43502V1C9.02564 0.333333 8.68376 0 8 0C7.31624 0 6.97436 0.333333 6.97436 1V1.43502ZM8 20C6.30066 20 4.92308 18.6569 4.92308 17H11.0769C11.0769 18.6569 9.69934 20 8 20Z" fill="#26333D"/>
</svg>
