<svg width="102" height="102" viewBox="0 0 102 102" fill="none" xmlns="http://www.w3.org/2000/svg">
<path d="M1 5C1 2.79086 2.79086 1 5 1H101V101H5C2.79086 101 1 99.2091 1 97V5Z" fill="white"/>
<path d="M41.0449 86H38.3517V77.2727H41.1642C42.0108 77.2727 42.7353 77.4474 43.3375 77.7969C43.9398 78.1435 44.4015 78.642 44.7225 79.2926C45.0435 79.9403 45.204 80.7159 45.204 81.6193C45.204 82.5284 45.0421 83.3111 44.7182 83.9673C44.3944 84.6207 43.9228 85.1236 43.3034 85.4759C42.6841 85.8253 41.9313 86 41.0449 86ZM39.4086 85.0625H40.9767C41.6983 85.0625 42.2963 84.9233 42.7708 84.6449C43.2452 84.3665 43.5989 83.9702 43.8319 83.456C44.0648 82.9418 44.1813 82.3295 44.1813 81.6193C44.1813 80.9148 44.0662 80.3082 43.8361 79.7997C43.606 79.2884 43.2623 78.8963 42.8049 78.6236C42.3475 78.348 41.7779 78.2102 41.0961 78.2102H39.4086V85.0625ZM49.4995 86.1364C48.9086 86.1364 48.3901 85.9957 47.9441 85.7145C47.5009 85.4332 47.1543 85.0398 46.9043 84.5341C46.6571 84.0284 46.5336 83.4375 46.5336 82.7614C46.5336 82.0795 46.6571 81.4844 46.9043 80.9759C47.1543 80.4673 47.5009 80.0724 47.9441 79.7912C48.3901 79.5099 48.9086 79.3693 49.4995 79.3693C50.0904 79.3693 50.6074 79.5099 51.0506 79.7912C51.4966 80.0724 51.8432 80.4673 52.0904 80.9759C52.3404 81.4844 52.4654 82.0795 52.4654 82.7614C52.4654 83.4375 52.3404 84.0284 52.0904 84.5341C51.8432 85.0398 51.4966 85.4332 51.0506 85.7145C50.6074 85.9957 50.0904 86.1364 49.4995 86.1364ZM49.4995 85.233C49.9483 85.233 50.3176 85.1179 50.6074 84.8878C50.8972 84.6577 51.1117 84.3551 51.2509 83.9801C51.3901 83.6051 51.4597 83.1989 51.4597 82.7614C51.4597 82.3239 51.3901 81.9162 51.2509 81.5384C51.1117 81.1605 50.8972 80.8551 50.6074 80.6222C50.3176 80.3892 49.9483 80.2727 49.4995 80.2727C49.0506 80.2727 48.6813 80.3892 48.3915 80.6222C48.1017 80.8551 47.8873 81.1605 47.748 81.5384C47.6088 81.9162 47.5392 82.3239 47.5392 82.7614C47.5392 83.1989 47.6088 83.6051 47.748 83.9801C47.8873 84.3551 48.1017 84.6577 48.3915 84.8878C48.6813 85.1179 49.0506 85.233 49.4995 85.233ZM56.6596 86.1364C56.0687 86.1364 55.5502 85.9957 55.1042 85.7145C54.661 85.4332 54.3145 85.0398 54.0645 84.5341C53.8173 84.0284 53.6937 83.4375 53.6937 82.7614C53.6937 82.0795 53.8173 81.4844 54.0645 80.9759C54.3145 80.4673 54.661 80.0724 55.1042 79.7912C55.5502 79.5099 56.0687 79.3693 56.6596 79.3693C57.2505 79.3693 57.7676 79.5099 58.2108 79.7912C58.6568 80.0724 59.0034 80.4673 59.2505 80.9759C59.5005 81.4844 59.6255 82.0795 59.6255 82.7614C59.6255 83.4375 59.5005 84.0284 59.2505 84.5341C59.0034 85.0398 58.6568 85.4332 58.2108 85.7145C57.7676 85.9957 57.2505 86.1364 56.6596 86.1364ZM56.6596 85.233C57.1085 85.233 57.4778 85.1179 57.7676 84.8878C58.0574 84.6577 58.2718 84.3551 58.411 83.9801C58.5502 83.6051 58.6199 83.1989 58.6199 82.7614C58.6199 82.3239 58.5502 81.9162 58.411 81.5384C58.2718 81.1605 58.0574 80.8551 57.7676 80.6222C57.4778 80.3892 57.1085 80.2727 56.6596 80.2727C56.2108 80.2727 55.8414 80.3892 55.5517 80.6222C55.2619 80.8551 55.0474 81.1605 54.9082 81.5384C54.769 81.9162 54.6994 82.3239 54.6994 82.7614C54.6994 83.1989 54.769 83.6051 54.9082 83.9801C55.0474 84.3551 55.2619 84.6577 55.5517 84.8878C55.8414 85.1179 56.2108 85.233 56.6596 85.233ZM61.1607 86V79.4545H62.1323V80.4432H62.2005C62.3198 80.1193 62.5357 79.8565 62.8482 79.6548C63.1607 79.4531 63.513 79.3523 63.905 79.3523C63.9789 79.3523 64.0712 79.3537 64.182 79.3565C64.2928 79.3594 64.3766 79.3636 64.4334 79.3693V80.392C64.3993 80.3835 64.3212 80.3707 64.199 80.3537C64.0797 80.3338 63.9533 80.3239 63.8198 80.3239C63.5016 80.3239 63.2175 80.3906 62.9675 80.5241C62.7203 80.6548 62.5243 80.8366 62.3794 81.0696C62.2374 81.2997 62.1664 81.5625 62.1664 81.858V86H61.1607Z" fill="black"/>
<path d="M38.4286 60.6471V24.1765C38.4286 23.5267 38.9402 23 39.5714 23H62.4286C63.0598 23 63.5714 23.5267 63.5714 24.1765V60.6471H65.8571C66.4883 60.6471 67 61.1738 67 61.8235C67 62.4733 66.4883 63 65.8571 63H36.1429C35.5117 63 35 62.4733 35 61.8235C35 61.1738 35.5117 60.6471 36.1429 60.6471H38.4286ZM40.7143 60.6471H61.2857V25.3529H40.7143V60.6471ZM44.7143 50.0588C43.7675 50.0588 43 49.2687 43 48.2941C43 47.3195 43.7675 46.5294 44.7143 46.5294C45.6611 46.5294 46.4286 47.3195 46.4286 48.2941C46.4286 49.2687 45.6611 50.0588 44.7143 50.0588ZM44.1429 41.8235V30.0588C44.1429 29.4091 44.6545 28.8824 45.2857 28.8824H56.7143C57.3455 28.8824 57.8571 29.4091 57.8571 30.0588V41.8235C57.8571 42.4733 57.3455 43 56.7143 43H45.2857C44.6545 43 44.1429 42.4733 44.1429 41.8235ZM46.4286 34.7647H49.8571V31.2353H46.4286V34.7647ZM52.1429 34.7647H55.5714V31.2353H52.1429V34.7647ZM52.1429 40.6471H55.5714V37.1176H52.1429V40.6471ZM46.4286 40.6471H49.8571V37.1176H46.4286V40.6471Z" fill="black"/>
<path d="M1 5C1 2.79086 2.79086 1 5 1H101V101H5C2.79086 101 1 99.2091 1 97V5Z" stroke="#E4E7EC"/>
</svg>
