<svg width="76" height="36" viewBox="0 0 76 36" fill="none" xmlns="http://www.w3.org/2000/svg">
<g clip-path="url(#clip0_55_1710)">
<path d="M27.5549 10.7823L26.459 11.0454L26.5302 11.342L27.6261 11.0788L27.5549 10.7823Z" fill="black"/>
<path d="M29.7468 10.2553L28.6509 10.5184L28.7221 10.815L29.818 10.5519L29.7468 10.2553Z" fill="black"/>
<path d="M50.6431 11.3081L50.5718 11.6046L51.6676 11.8682L51.7389 11.5717L50.6431 11.3081Z" fill="black"/>
<path d="M55.0264 12.3623L54.9551 12.6588L56.0509 12.9224L56.1222 12.6259L55.0264 12.3623Z" fill="black"/>
<path d="M23.1715 11.8356L22.0757 12.0992L22.147 12.3958L23.2428 12.1322L23.1715 11.8356Z" fill="black"/>
<path d="M30.8408 9.98895L30.9118 10.2879L32.0078 10.025L31.9368 9.72595L30.8408 9.98895Z" fill="black"/>
<path d="M52.8329 11.8334L52.7617 12.13L53.8576 12.3932L53.9288 12.0966L52.8329 11.8334Z" fill="black"/>
<path d="M25.3625 11.3102L24.2666 11.5734L24.3378 11.8699L25.4337 11.6068L25.3625 11.3102Z" fill="black"/>
<path d="M44.0669 9.72737L43.9956 10.0239L45.0914 10.2875L45.1627 9.99098L44.0669 9.72737Z" fill="black"/>
<path d="M36.3229 8.6741L35.2271 8.93726L35.2983 9.23384L36.3942 8.97068L36.3229 8.6741Z" fill="black"/>
<path d="M41.8746 9.20015L41.8032 9.4967L42.899 9.76031L42.9703 9.46376L41.8746 9.20015Z" fill="black"/>
<path d="M38 8.58294L38.513 8.70594L38.584 8.40894L38 8.26794L37.417 8.40894L37.488 8.70594L38 8.58294Z" fill="black"/>
<path d="M48.4502 10.7806L48.3789 11.0771L49.4747 11.3408L49.546 11.0442L48.4502 10.7806Z" fill="black"/>
<path d="M34.131 9.20108L33.0352 9.46423L33.1064 9.76082L34.2023 9.49766L34.131 9.20108Z" fill="black"/>
<path d="M46.2588 10.2536L46.1875 10.5502L47.2833 10.8138L47.3546 10.5172L46.2588 10.2536Z" fill="black"/>
<path d="M39.6827 8.67305L39.6113 8.9696L40.7071 9.23321L40.7784 8.93666L39.6827 8.67305Z" fill="black"/>
<path d="M20.9791 12.3627L19.8833 12.6263L19.9546 12.9229L21.0504 12.6593L20.9791 12.3627Z" fill="black"/>
<path d="M17.761 13.451L18.857 13.188L18.786 12.889L17.689 13.152L17.761 13.451Z" fill="black"/>
<path d="M14.4039 13.9439L13.3081 14.2075L13.3794 14.5041L14.4752 14.2405L14.4039 13.9439Z" fill="black"/>
<path d="M16.5963 13.4168L15.5005 13.6804L15.5718 13.977L16.6676 13.7134L16.5963 13.4168Z" fill="black"/>
<path d="M60.503 13.679L59.407 13.417L59.335 13.715L60.432 13.978L60.503 13.679Z" fill="black"/>
<path d="M61.6021 13.9438L61.5308 14.2404L62.6265 14.504L62.6979 14.2074L61.6021 13.9438Z" fill="black"/>
<path d="M57.2193 12.8896L57.1479 13.1862L58.2437 13.4498L58.3151 13.1532L57.2193 12.8896Z" fill="black"/>
<path d="M18.2199 11.123L18.0839 10.847L17.0659 11.352L17.2019 11.627L18.2199 11.123Z" fill="black"/>
<path d="M32.3344 3.77094L31.3169 4.27612L31.4525 4.54931L32.47 4.04413L32.3344 3.77094Z" fill="black"/>
<path d="M30.4328 5.05706L30.2958 4.78406L29.2788 5.29006L29.4158 5.56306L30.4328 5.05706Z" fill="black"/>
<path d="M14.0151 12.8679L12.9976 13.373L13.1332 13.6462L14.1507 13.1411L14.0151 12.8679Z" fill="black"/>
<path d="M36.5402 2.02698L36.4042 1.75098L35.3862 2.25598L35.5212 2.53198L36.5402 2.02698Z" fill="black"/>
<path d="M16.0497 11.8571L15.0322 12.3623L15.1679 12.6355L16.1854 12.1303L16.0497 11.8571Z" fill="black"/>
<path d="M34.5041 3.03796L34.3681 2.76196L33.3501 3.26696L33.4861 3.54196L34.5041 3.03796Z" fill="black"/>
<path d="M22.2912 9.10003L22.1542 8.82703L21.1372 9.33303L21.2732 9.60603L22.2912 9.10003Z" fill="black"/>
<path d="M28.3982 6.06795L28.2612 5.79395L27.2432 6.29995L27.3802 6.57395L28.3982 6.06795Z" fill="black"/>
<path d="M24.3269 8.08904L24.1899 7.81604L23.1719 8.32204L23.3089 8.59504L24.3269 8.08904Z" fill="black"/>
<path d="M20.1205 9.83491L19.103 10.3401L19.2391 10.6142L20.2566 10.109L20.1205 9.83491Z" fill="black"/>
<path d="M26.362 7.07905L26.226 6.80505L25.208 7.31105L25.344 7.58405L26.362 7.07905Z" fill="black"/>
<path d="M37.9999 1.30098L38.4429 1.52098L38.5789 1.24598L37.9999 0.958984L37.4209 1.24598L37.5569 1.52098L37.9999 1.30098Z" fill="black"/>
<path d="M39.5985 1.75449L39.4629 2.02771L40.4805 2.53266L40.6161 2.25944L39.5985 1.75449Z" fill="black"/>
<path d="M41.6336 2.76462L41.498 3.03784L42.5157 3.54279L42.6512 3.26958L41.6336 2.76462Z" fill="black"/>
<path d="M63.0061 13.375L61.9881 12.869L61.8511 13.142L62.8691 13.648L63.0061 13.375Z" fill="black"/>
<path d="M48.757 6.29995L47.739 5.79395L47.6021 6.06795L48.62 6.57395L48.757 6.29995Z" fill="black"/>
<path d="M46.7209 5.28906L45.7029 4.78406L45.5669 5.05906L46.5849 5.56406L46.7209 5.28906Z" fill="black"/>
<path d="M55.8809 9.84091L55.7451 10.1151L56.7631 10.6193L56.8989 10.3451L55.8809 9.84091Z" fill="black"/>
<path d="M43.6698 3.77512L43.5342 4.04834L44.5518 4.55329L44.6874 4.28007L43.6698 3.77512Z" fill="black"/>
<path d="M60.9699 12.364L59.9519 11.858L59.8149 12.131L60.8329 12.637L60.9699 12.364Z" fill="black"/>
<path d="M58.9338 11.352L57.9158 10.847L57.7798 11.123L58.7978 11.627L58.9338 11.352Z" fill="black"/>
<path d="M50.7922 7.31105L49.7742 6.80505L49.6382 7.07905L50.6562 7.58405L50.7922 7.31105Z" fill="black"/>
<path d="M51.8118 7.81748L51.6763 8.0907L52.6939 8.59565L52.8295 8.32243L51.8118 7.81748Z" fill="black"/>
<path d="M53.8479 8.82818L53.7119 9.10229L54.7295 9.60725L54.8656 9.33313L53.8479 8.82818Z" fill="black"/>
<path d="M64.8012 15.028L64.8152 15.032L64.8682 14.815L64.9632 14.555L64.9572 14.553L65.0412 14.384L64.0232 13.879L63.8872 14.153L63.9582 14.188L63.9072 14.169L63.8022 14.457L63.9412 14.507L63.7912 14.471L63.7192 14.768L63.9342 14.82L63.6732 14.789L63.6372 15.093L64.7772 15.229L64.8012 15.028Z" fill="black"/>
<path d="M59.111 14.2429L59.0747 14.5477L60.2147 14.6834L60.251 14.3786L59.111 14.2429Z" fill="black"/>
<path d="M43.1486 12.3374L43.1123 12.6422L44.2523 12.7779L44.2886 12.4731L43.1486 12.3374Z" fill="black"/>
<path d="M52.2726 13.4292L52.2363 13.734L53.3773 13.8698L53.4136 13.565L52.2726 13.4292Z" fill="black"/>
<path d="M47.6738 13.1881L48.8138 13.3251L48.8498 13.0201L47.7098 12.8831L47.6738 13.1881Z" fill="black"/>
<path d="M54.5151 14.004L55.6551 14.1409L55.6911 13.8359L54.5511 13.7L54.5151 14.004Z" fill="black"/>
<path d="M62.533 14.653L61.392 14.516L61.356 14.821L62.497 14.958L62.533 14.653Z" fill="black"/>
<path d="M49.9894 13.1535L49.9531 13.4584L51.0931 13.5941L51.1294 13.2892L49.9894 13.1535Z" fill="black"/>
<path d="M56.8302 13.9701L56.7939 14.2749L57.9339 14.4106L57.9702 14.1057L56.8302 13.9701Z" fill="black"/>
<path d="M45.4289 12.6102L45.3926 12.915L46.5325 13.0507L46.5688 12.7459L45.4289 12.6102Z" fill="black"/>
<path d="M30.5706 12.6092L29.4307 12.7444L29.4668 13.0492L30.6068 12.914L30.5706 12.6092Z" fill="black"/>
<path d="M22.6249 13.869L23.7659 13.732L23.7289 13.427L22.5889 13.564L22.6249 13.869Z" fill="black"/>
<path d="M19.1683 13.9736L18.0283 14.1093L18.0646 14.4141L19.2046 14.2784L19.1683 13.9736Z" fill="black"/>
<path d="M15.785 14.685L16.925 14.548L16.889 14.244L15.749 14.38L15.785 14.685Z" fill="black"/>
<path d="M35.1682 12.372L35.1322 12.067L33.9922 12.204L34.0282 12.508L35.1682 12.372Z" fill="black"/>
<path d="M26.0101 13.1532L24.8701 13.2885L24.9063 13.5933L26.0462 13.4581L26.0101 13.1532Z" fill="black"/>
<path d="M21.4481 13.7016L20.3081 13.8373L20.3444 14.1421L21.4844 14.0064L21.4481 13.7016Z" fill="black"/>
<path d="M28.3269 13.1881L28.2909 12.8831L27.1499 13.0201L27.1869 13.3251L28.3269 13.1881Z" fill="black"/>
<path d="M32.8504 12.336L31.7104 12.4712L31.7466 12.776L32.8866 12.6408L32.8504 12.336Z" fill="black"/>
<path d="M38.5885 11.7937L38.5522 12.0985L39.6922 12.2342L39.7285 11.9294L38.5885 11.7937Z" fill="black"/>
<path d="M37.4114 11.7919L36.2715 11.9271L36.3076 12.232L37.4476 12.0967L37.4114 11.7919Z" fill="black"/>
<path d="M40.833 12.372L41.973 12.508L42.009 12.204L40.869 12.067L40.833 12.372Z" fill="black"/>
<path d="M14.6072 14.5175L13.4673 14.6532L13.5036 14.958L14.6435 14.8224L14.6072 14.5175Z" fill="black"/>
<path d="M60.7421 13.012L59.6861 12.626L59.5811 12.914L60.6361 13.299L60.7421 13.012Z" fill="black"/>
<path d="M11.037 14.555L11.134 14.819L11.185 15.032L11.2 15.028L11.224 15.229L12.364 15.093L12.328 14.789L12.067 14.82L12.281 14.768L12.21 14.471L12.057 14.508L12.198 14.457L12.092 14.169L12.051 14.185L12.113 14.154L11.977 13.88L10.959 14.385L11.043 14.553L11.037 14.555Z" fill="black"/>
<path d="M13.2529 14.0709L14.3089 13.685L14.2029 13.3979L13.1479 13.784L13.2529 14.0709Z" fill="black"/>
<path d="M56.5209 11.469L55.4649 11.083L55.3589 11.371L56.4149 11.756L56.5209 11.469Z" fill="black"/>
<path d="M15.3638 13.299L16.4188 12.914L16.3128 12.626L15.2578 13.012L15.3638 13.299Z" fill="black"/>
<path d="M21.6958 10.985L22.7508 10.599L22.6458 10.312L21.5898 10.698L21.6958 10.985Z" fill="black"/>
<path d="M43.8568 6.83995L42.8018 6.45496L42.6958 6.74195L43.7508 7.12695L43.8568 6.83995Z" fill="black"/>
<path d="M17.4751 12.528L18.5301 12.142L18.4241 11.855L17.3691 12.241L17.4751 12.528Z" fill="black"/>
<path d="M58.6312 12.241L57.5762 11.855L57.4702 12.142L58.5252 12.528L58.6312 12.241Z" fill="black"/>
<path d="M19.585 11.756L20.64 11.371L20.535 11.083L19.479 11.469L19.585 11.756Z" fill="black"/>
<path d="M62.8519 13.784L61.7969 13.3979L61.6909 13.685L62.7469 14.0709L62.8519 13.784Z" fill="black"/>
<path d="M36.4698 5.58399L37.5248 5.19899L37.4188 4.91199L36.3638 5.29699L36.4698 5.58399Z" fill="black"/>
<path d="M48.078 8.38305L47.023 7.99805L46.917 8.28505L47.973 8.67004L48.078 8.38305Z" fill="black"/>
<path d="M34.3589 6.35598L35.4149 5.96999L35.3089 5.68298L34.2539 6.06898L34.3589 6.35598Z" fill="black"/>
<path d="M32.2491 7.12695L33.3041 6.74195L33.1981 6.45496L32.1431 6.83995L32.2491 7.12695Z" fill="black"/>
<path d="M41.641 6.35598L41.746 6.06898L40.691 5.68298L40.585 5.96999L41.641 6.35598Z" fill="black"/>
<path d="M39.5301 5.58399L39.6361 5.29699L38.5811 4.91199L38.4751 5.19899L39.5301 5.58399Z" fill="black"/>
<path d="M45.9671 7.61195L44.9121 7.22595L44.8071 7.51295L45.8621 7.89895L45.9671 7.61195Z" fill="black"/>
<path d="M23.8062 10.213L24.8612 9.82801L24.7562 9.54102L23.7012 9.92601L23.8062 10.213Z" fill="black"/>
<path d="M28.0269 8.67004L29.0829 8.28505L28.9769 7.99805L27.9219 8.38305L28.0269 8.67004Z" fill="black"/>
<path d="M25.917 9.44204L26.972 9.05604L26.867 8.76904L25.812 9.15504L25.917 9.44204Z" fill="black"/>
<path d="M54.41 10.698L53.354 10.312L53.249 10.599L54.304 10.985L54.41 10.698Z" fill="black"/>
<path d="M30.1382 7.89895L31.1932 7.51295L31.0882 7.22595L30.0332 7.61195L30.1382 7.89895Z" fill="black"/>
<path d="M52.2992 9.92601L51.2442 9.54102L51.1392 9.82801L52.1942 10.213L52.2992 9.92601Z" fill="black"/>
<path d="M50.1878 9.15504L49.1328 8.76904L49.0278 9.05604L50.0828 9.44204L50.1878 9.15504Z" fill="black"/>
<path d="M66.501 33.521V15.282V15.28L66.569 15.143L66.058 14.889L66.03 14.944L66.017 14.939L65.995 15L65.982 14.997L65.966 15.061L65.951 15.059L65.945 15.113L65.921 15.162L65.933 15.168L65.912 15.226L65.925 15.231L65.913 15.279H10.086L10.074 15.231L10.087 15.226L10.066 15.168L10.078 15.162L10.054 15.113L10.048 15.059L10.033 15.061L10.017 14.997L10.004 15L9.982 14.939L9.969 14.944L9.941 14.889L9.43 15.143L9.498 15.28V15.282V33.521H0.5V35.041H75.5V33.521H66.501ZM11.019 16.801H64.98V32.762H11.019V16.801Z" fill="black"/>
</g>
<defs>
<clipPath id="clip0_55_1710">
<rect width="76" height="35" fill="white" transform="translate(0 0.5)"/>
</clipPath>
</defs>
</svg>
