<svg width="102" height="102" viewBox="0 0 102 102" fill="none" xmlns="http://www.w3.org/2000/svg">
<path d="M1 5C1 2.79086 2.79086 1 5 1H101V101H5C2.79086 101 1 99.2091 1 97V5Z" fill="white"/>
<g clip-path="url(#clip0_54_980)">
<path d="M42.592 40.5194L42.5269 40.9014L43.6528 41.1061L43.718 40.7251L42.592 40.5194Z" fill="black"/>
<path d="M40.3419 40.1087L40.2764 40.4897L41.4006 40.6957L41.4661 40.3147L40.3419 40.1087Z" fill="black"/>
<path d="M47.0939 41.3392L47.0288 41.7202L48.1538 41.9249L48.2199 41.544L47.0939 41.3392Z" fill="black"/>
<path d="M49.3448 41.7475L49.2793 42.1285L50.4035 42.3345L50.469 41.9535L49.3448 41.7475Z" fill="black"/>
<path d="M44.844 40.9298L44.7778 41.3107L45.9028 41.5155L45.968 41.1345L44.844 40.9298Z" fill="black"/>
<path d="M26.8381 37.6532L26.772 38.0341L27.897 38.2378L27.9621 37.8569L26.8381 37.6532Z" fill="black"/>
<path d="M29.0881 38.0616L29.022 38.4426L30.148 38.6483L30.2141 38.2674L29.0881 38.0616Z" fill="black"/>
<path d="M35.8405 39.2901L35.7749 39.6711L36.8991 39.8771L36.9646 39.4961L35.8405 39.2901Z" fill="black"/>
<path d="M33.5891 38.8816L33.5239 39.2625L34.6499 39.4672L34.715 39.0863L33.5891 38.8816Z" fill="black"/>
<path d="M31.339 38.4705L31.2734 38.8516L32.3976 39.0576L32.4632 38.6765L31.339 38.4705Z" fill="black"/>
<path d="M62.8498 44.2064L62.7837 44.5873L63.9087 44.7921L63.9738 44.4111L62.8498 44.2064Z" fill="black"/>
<path d="M67.3498 45.0218L67.2847 45.403L68.4091 45.6078L68.4743 45.2266L67.3498 45.0218Z" fill="black"/>
<path d="M65.0998 44.6158L65.0347 44.9968L66.1597 45.2015L66.2258 44.8206L65.0998 44.6158Z" fill="black"/>
<path d="M69.5356 45.8167L70.6616 46.0204L70.7268 45.6395L69.6018 45.4358L69.5356 45.8167Z" fill="black"/>
<path d="M71.8513 45.8403L71.7861 46.2214L72.9106 46.4262L72.9757 46.0451L71.8513 45.8403Z" fill="black"/>
<path d="M24.5861 37.2428L24.521 37.6237L25.647 37.8284L25.7121 37.4475L24.5861 37.2428Z" fill="black"/>
<path d="M53.8458 42.567L53.7803 42.9481L54.9045 43.1541L54.97 42.773L53.8458 42.567Z" fill="black"/>
<path d="M60.5988 43.797L60.5327 44.1779L61.6587 44.3826L61.7238 44.0017L60.5988 43.797Z" fill="black"/>
<path d="M56.0969 42.978L56.0317 43.359L57.1567 43.5637L57.2229 43.1827L56.0969 42.978Z" fill="black"/>
<path d="M51.5959 42.1582L51.5298 42.5391L52.6558 42.7439L52.7209 42.3629L51.5959 42.1582Z" fill="black"/>
<path d="M58.3473 43.3856L58.2817 43.7667L59.4059 43.9727L59.4715 43.5916L58.3473 43.3856Z" fill="black"/>
<path d="M38.091 39.7004L38.0259 40.0814L39.1509 40.2861L39.217 39.9052L38.091 39.7004Z" fill="black"/>
<path d="M22.8109 26.4159L23.3398 26.6145L23.4671 26.2509L23.0615 26.0992V25.212H22.6865V26.4108H22.8128L22.8109 26.4159Z" fill="black"/>
<path d="M46.3774 34.8564L45.3363 34.4653L45.207 34.83L46.2491 35.2211L46.3774 34.8564Z" fill="black"/>
<path d="M48.4609 35.6386L47.4198 35.2485L47.2905 35.6121L48.3316 36.0033L48.4609 35.6386Z" fill="black"/>
<path d="M52.6264 37.2041L51.5853 36.813L51.4561 37.1766L52.4982 37.5687L52.6264 37.2041Z" fill="black"/>
<path d="M24.3789 27.0057L25.421 27.3968L25.5503 27.0332L24.5082 26.6421L24.3789 27.0057Z" fill="black"/>
<path d="M32.7109 30.1355L33.7521 30.5266L33.8813 30.163L32.8402 29.7709L32.7109 30.1355Z" fill="black"/>
<path d="M42.2124 33.292L41.1713 32.9009L41.042 33.2645L42.0831 33.6566L42.2124 33.292Z" fill="black"/>
<path d="M44.2954 34.0742L43.2533 33.6831L43.125 34.0477L44.1661 34.4388L44.2954 34.0742Z" fill="black"/>
<path d="M60.958 40.334L59.9159 39.9429L59.7866 40.3065L60.8287 40.6976L60.958 40.334Z" fill="black"/>
<path d="M49.3735 36.3944L50.4137 36.7855L50.5429 36.4219L49.5018 36.0308L49.3735 36.3944Z" fill="black"/>
<path d="M63.0405 41.1162L61.9994 40.7251L61.8701 41.0887L62.9112 41.4798L63.0405 41.1162Z" fill="black"/>
<path d="M65.1235 41.8984L64.0814 41.5073L63.9521 41.8709L64.9943 42.262L65.1235 41.8984Z" fill="black"/>
<path d="M40.1289 32.5098L39.0887 32.1187L38.9595 32.4823L40.0006 32.8734L40.1289 32.5098Z" fill="black"/>
<path d="M54.7095 37.9863L53.6674 37.5952L53.5381 37.9588L54.5802 38.351L54.7095 37.9863Z" fill="black"/>
<path d="M58.874 39.5507L57.8339 39.1606L57.7046 39.5243L58.7457 39.9154L58.874 39.5507Z" fill="black"/>
<path d="M56.792 38.7686L55.7508 38.3774L55.6226 38.7421L56.6627 39.1332L56.792 38.7686Z" fill="black"/>
<path d="M73.4546 45.0284L72.4125 44.6362L72.2832 45.0009L73.3253 45.392L73.4546 45.0284Z" fill="black"/>
<path d="M69.289 43.4639L68.2479 43.0718L68.1187 43.4364L69.1598 43.8275L69.289 43.4639Z" fill="black"/>
<path d="M38.0469 31.7275L37.0048 31.3353L36.8765 31.7L37.9176 32.0911L38.0469 31.7275Z" fill="black"/>
<path d="M26.4624 27.7879L27.5035 28.179L27.6328 27.8154L26.5917 27.4243L26.4624 27.7879Z" fill="black"/>
<path d="M28.5444 28.5702L29.5865 28.9613L29.7158 28.5977L28.6737 28.2065L28.5444 28.5702Z" fill="black"/>
<path d="M71.3726 44.2461L70.3304 43.854L70.2012 44.2186L71.2433 44.6097L71.3726 44.2461Z" fill="black"/>
<path d="M30.6274 29.3533L31.6686 29.7434L31.7978 29.3798L30.7567 28.9886L30.6274 29.3533Z" fill="black"/>
<path d="M35.9644 30.9452L34.9222 30.5531L34.793 30.9177L35.8351 31.3088L35.9644 30.9452Z" fill="black"/>
<path d="M67.0768 43.0443L67.206 42.6807L66.1649 42.2896L66.0356 42.6542L67.0768 43.0443Z" fill="black"/>
<path d="M64.1854 38.2389L63.2163 37.6614L63.0288 37.9965L63.9989 38.574L64.1854 38.2389Z" fill="black"/>
<path d="M62.2459 37.0829L61.2759 36.5054L61.0894 36.8405L62.0584 37.419L62.2459 37.0829Z" fill="black"/>
<path d="M54.4876 32.4598L53.5186 31.8823L53.3311 32.2174L54.3011 32.7959L54.4876 32.4598Z" fill="black"/>
<path d="M58.3665 34.7718L57.3965 34.1943L57.21 34.5294L58.179 35.1069L58.3665 34.7718Z" fill="black"/>
<path d="M59.3348 35.346L59.1475 35.6813L60.1177 36.2589L60.305 35.9237L59.3348 35.346Z" fill="black"/>
<path d="M55.4559 33.0339L55.2686 33.3691L56.2388 33.9468L56.4261 33.6115L55.4559 33.0339Z" fill="black"/>
<path d="M27.3343 16.2796L26.3642 15.7021L26.1777 16.0372L27.1468 16.6147L27.3343 16.2796Z" fill="black"/>
<path d="M71.9437 42.862L70.9736 42.2834L70.7871 42.6196L71.7562 43.1971L71.9437 42.862Z" fill="black"/>
<path d="M69.0326 41.1229L68.8452 41.4581L69.8154 42.0358L70.0028 41.7005L69.0326 41.1229Z" fill="black"/>
<path d="M65.1537 38.8125L64.9663 39.1477L65.9365 39.7254L66.1239 39.3901L65.1537 38.8125Z" fill="black"/>
<path d="M73.8831 44.018L72.9141 43.4395L72.7275 43.7745L73.6966 44.3531L73.8831 44.018Z" fill="black"/>
<path d="M52.5472 31.3048L51.5781 30.7263L51.3906 31.0614L52.3607 31.6399L52.5472 31.3048Z" fill="black"/>
<path d="M25.3944 15.1236L24.4243 14.5461L24.2378 14.8812L25.2069 15.4598L25.3944 15.1236Z" fill="black"/>
<path d="M68.0643 40.5509L67.0952 39.9724L66.9077 40.3075L67.8778 40.886L68.0643 40.5509Z" fill="black"/>
<path d="M36.0604 21.4783L35.873 21.8136L36.8432 22.3913L37.0306 22.056L36.0604 21.4783Z" fill="black"/>
<path d="M41.8798 24.9445L41.6924 25.2798L42.6626 25.8574L42.85 25.5222L41.8798 24.9445Z" fill="black"/>
<path d="M44.7899 26.6818L43.8208 26.1033L43.6333 26.4384L44.6034 27.0169L44.7899 26.6818Z" fill="black"/>
<path d="M31.2127 18.5917L30.2437 18.0132L30.0562 18.3483L31.0262 18.9268L31.2127 18.5917Z" fill="black"/>
<path d="M35.0921 20.9027L34.1221 20.3252L33.9355 20.6603L34.9046 21.2378L35.0921 20.9027Z" fill="black"/>
<path d="M40.9105 24.3697L39.9414 23.7922L39.7539 24.1273L40.724 24.7048L40.9105 24.3697Z" fill="black"/>
<path d="M38.9715 23.2147L38.0015 22.6362L37.8149 22.9713L38.784 23.5498L38.9715 23.2147Z" fill="black"/>
<path d="M29.2728 17.4357L28.3037 16.8582L28.1172 17.1932L29.0863 17.7707L29.2728 17.4357Z" fill="black"/>
<path d="M48.6693 28.9928L47.6992 28.4153L47.5127 28.7504L48.4818 29.3279L48.6693 28.9928Z" fill="black"/>
<path d="M50.6092 30.1488L49.6391 29.5703L49.4526 29.9064L50.4217 30.4839L50.6092 30.1488Z" fill="black"/>
<path d="M45.7592 27.2558L45.5718 27.5911L46.542 28.1687L46.7294 27.8335L45.7592 27.2558Z" fill="black"/>
<path d="M32.1825 19.1668L31.9951 19.5021L32.9653 20.0797L33.1527 19.7445L32.1825 19.1668Z" fill="black"/>
<path d="M23.0625 18.0223H22.6865V19.2201H23.0625V18.0223Z" fill="black"/>
<path d="M23.0625 22.8154H22.6865V24.0142H23.0625V22.8154Z" fill="black"/>
<path d="M23.0615 42.4973L23.4188 42.5299L23.4513 42.1439L23.0615 42.1082V41.9911H22.6865V43.1889H23.0615V42.4973Z" fill="black"/>
<path d="M23.0625 15.6248H22.6865V16.8236H23.0625V15.6248Z" fill="black"/>
<path d="M23.0615 20.5972L23.3053 20.7133L23.4632 20.3619L22.953 20.1174L22.8178 20.4189H22.6865V21.6167H23.0615V20.5972Z" fill="black"/>
<path d="M23.0625 27.6096H22.6865V28.8084H23.0625V27.6096Z" fill="black"/>
<path d="M23.0625 30.0062H22.6865V31.204H23.0625V30.0062Z" fill="black"/>
<path d="M23.0625 39.5935H22.6865V40.7923H23.0625V39.5935Z" fill="black"/>
<path d="M23.0625 34.8004H22.6865V35.9992H23.0625V34.8004Z" fill="black"/>
<path d="M23.0615 37.3589L23.3951 37.42L23.4612 37.0391L22.9066 36.9373L22.8622 37.197H22.6865V38.3958H23.0615V37.3589Z" fill="black"/>
<path d="M23.0625 32.4028H22.6865V33.6016H23.0625V32.4028Z" fill="black"/>
<path d="M23.0625 44.3877H22.6865V45.5865H23.0625V44.3877Z" fill="black"/>
<path d="M23.0615 14.1805L23.2678 14.3038L23.4553 13.9687L22.9678 13.6784L22.6865 13.5083V13.8464V14.426H23.0615V14.1805Z" fill="black"/>
<path d="M35.8281 43.2631L35.7954 43.6487L36.9201 43.7502L36.9527 43.3646L35.8281 43.2631Z" fill="black"/>
<path d="M38.0802 43.4637L38.0474 43.8492L39.172 43.9512L39.2048 43.5656L38.0802 43.4637Z" fill="black"/>
<path d="M40.3286 43.6689L40.2959 44.0544L41.4206 44.1559L41.4532 43.7704L40.3286 43.6689Z" fill="black"/>
<path d="M58.3315 45.2945L58.2988 45.6801L59.4235 45.7815L59.4561 45.396L58.3315 45.2945Z" fill="black"/>
<path d="M42.5807 43.8693L42.5479 44.2549L43.6725 44.3568L43.7053 43.9713L42.5807 43.8693Z" fill="black"/>
<path d="M53.831 44.8886L53.7983 45.2742L54.923 45.3757L54.9557 44.9901L53.831 44.8886Z" fill="black"/>
<path d="M56.0815 45.0914L56.0488 45.4769L57.1735 45.5784L57.2061 45.1929L56.0815 45.0914Z" fill="black"/>
<path d="M62.8296 45.6961L62.7969 46.0817L63.9225 46.1836L63.9553 45.798L62.8296 45.6961Z" fill="black"/>
<path d="M60.579 45.4966L60.5464 45.8822L61.672 45.9837L61.7047 45.5981L60.579 45.4966Z" fill="black"/>
<path d="M65.0795 45.9036L65.0469 46.2892L66.1725 46.3906L66.2051 46.0051L65.0795 45.9036Z" fill="black"/>
<path d="M44.8295 44.0759L44.7969 44.4614L45.9215 44.5629L45.9542 44.1773L44.8295 44.0759Z" fill="black"/>
<path d="M47.0802 44.2759L47.0474 44.6615L48.172 44.7635L48.2048 44.3779L47.0802 44.2759Z" fill="black"/>
<path d="M51.5805 44.6855L51.5479 45.071L52.6725 45.1725L52.7052 44.787L51.5805 44.6855Z" fill="black"/>
<path d="M49.33 44.4817L49.2974 44.8673L50.422 44.9688L50.4547 44.5832L49.33 44.4817Z" fill="black"/>
<path d="M31.3271 42.8572L31.2944 43.2428L32.4191 43.3443L32.4518 42.9587L31.3271 42.8572Z" fill="black"/>
<path d="M24.5771 42.2466L24.5444 42.6322L25.6691 42.7337L25.7018 42.3481L24.5771 42.2466Z" fill="black"/>
<path d="M33.5776 43.0594L33.5449 43.4449L34.6696 43.5464L34.7022 43.1609L33.5776 43.0594Z" fill="black"/>
<path d="M26.8266 42.4504L26.7939 42.8359L27.9186 42.9374L27.9513 42.5519L26.8266 42.4504Z" fill="black"/>
<path d="M29.0776 42.6536L29.0449 43.0392L30.1696 43.1407L30.2022 42.7551L29.0776 42.6536Z" fill="black"/>
<path d="M22.8257 31.9954L23.3694 32.1461L23.4661 31.7723L22.9224 31.6216L22.8257 31.9954Z" fill="black"/>
<path d="M55.9146 40.7465L54.834 40.447L54.7373 40.8208L55.8189 41.1203L55.9146 40.7465Z" fill="black"/>
<path d="M58.0787 41.3444L56.9971 41.0449L56.9004 41.4187L57.982 41.7182L58.0787 41.3444Z" fill="black"/>
<path d="M24.4512 32.4456L25.5318 32.744L25.6285 32.3702L24.5469 32.0718L24.4512 32.4456Z" fill="black"/>
<path d="M60.2418 41.9422L59.1612 41.6438L59.0645 42.0176L60.146 42.317L60.2418 41.9422Z" fill="black"/>
<path d="M62.4058 42.5401L61.3233 42.2417L61.2266 42.6155L62.3091 42.9149L62.4058 42.5401Z" fill="black"/>
<path d="M73.2227 45.5315L72.1402 45.233L72.0435 45.6068L73.126 45.9063L73.2227 45.5315Z" fill="black"/>
<path d="M26.6143 33.0435L27.6958 33.3429L27.7916 32.9681L26.711 32.6697L26.6143 33.0435Z" fill="black"/>
<path d="M64.5689 43.139L63.4863 42.8396L63.3906 43.2144L64.4722 43.5128L64.5689 43.139Z" fill="black"/>
<path d="M66.731 43.7369L65.6504 43.4385L65.5537 43.8123L66.6353 44.1107L66.731 43.7369Z" fill="black"/>
<path d="M71.0586 44.9336L69.9771 44.6351L69.8813 45.0089L70.9629 45.3074L71.0586 44.9336Z" fill="black"/>
<path d="M40.7725 36.5584L39.6909 36.2589L39.5942 36.6337L40.6758 36.9322L40.7725 36.5584Z" fill="black"/>
<path d="M47.2618 38.3529L46.1802 38.0535L46.0845 38.4273L47.1651 38.7267L47.2618 38.3529Z" fill="black"/>
<path d="M36.4449 35.3615L35.3633 35.0631L35.2676 35.4369L36.3482 35.7353L36.4449 35.3615Z" fill="black"/>
<path d="M45.0997 37.7551L44.0171 37.4557L43.9204 37.8295L45.003 38.1289L45.0997 37.7551Z" fill="black"/>
<path d="M34.2828 34.7637L33.2002 34.4642L33.1035 34.838L34.1861 35.1375L34.2828 34.7637Z" fill="black"/>
<path d="M42.9356 37.1562L41.853 36.8578L41.7573 37.2316L42.8389 37.53L42.9356 37.1562Z" fill="black"/>
<path d="M38.6085 35.9594L37.5279 35.661L37.4312 36.0348L38.5127 36.3343L38.6085 35.9594Z" fill="black"/>
<path d="M32.1187 34.1648L31.0371 33.8663L30.9404 34.2401L32.023 34.5386L32.1187 34.1648Z" fill="black"/>
<path d="M49.4249 38.9509L48.3443 38.6525L48.2476 39.0263L49.3291 39.3257L49.4249 38.9509Z" fill="black"/>
<path d="M51.5889 39.5497L50.5064 39.2502L50.4097 39.624L51.4922 39.9235L51.5889 39.5497Z" fill="black"/>
<path d="M68.8956 44.3357L67.814 44.0363L67.7173 44.4101L68.7989 44.7095L68.8956 44.3357Z" fill="black"/>
<path d="M53.7525 40.1476L52.6699 39.8481L52.5742 40.2219L53.6558 40.5214L53.7525 40.1476Z" fill="black"/>
<path d="M28.7773 33.6423L29.8589 33.9407L29.9556 33.5669L28.8741 33.2675L28.7773 33.6423Z" fill="black"/>
<path d="M26.3169 22.1636L27.3215 22.6464L27.4794 22.295L26.4748 21.8123L26.3169 22.1636Z" fill="black"/>
<path d="M73.6737 44.5272L72.6691 44.0444L72.5112 44.3958L73.5149 44.8786L73.6737 44.5272Z" fill="black"/>
<path d="M67.6479 41.6276L66.6442 41.1448L66.4854 41.4951L67.49 41.9789L67.6479 41.6276Z" fill="black"/>
<path d="M28.3252 23.1302L29.3298 23.613L29.4877 23.2626L28.4841 22.7788L28.3252 23.1302Z" fill="black"/>
<path d="M69.6561 42.5941L68.6525 42.1113L68.4946 42.4617L69.4983 42.9455L69.6561 42.5941Z" fill="black"/>
<path d="M71.6644 43.5607L70.6608 43.0779L70.5029 43.4283L71.5065 43.912L71.6644 43.5607Z" fill="black"/>
<path d="M53.4314 35.2128L53.5893 34.8614L52.5847 34.3787L52.4268 34.729L53.4314 35.2128Z" fill="black"/>
<path d="M63.6317 39.6943L62.6271 39.2115L62.4692 39.5629L63.4738 40.0457L63.6317 39.6943Z" fill="black"/>
<path d="M42.3857 29.8961L43.3894 30.3789L43.5473 30.0286L42.5436 29.5458L42.3857 29.8961Z" fill="black"/>
<path d="M30.3345 24.0968L31.3381 24.5805L31.496 24.2292L30.4924 23.7454L30.3345 24.0968Z" fill="black"/>
<path d="M61.6234 38.7278L60.6188 38.245L60.4609 38.5954L61.4646 39.0792L61.6234 38.7278Z" fill="black"/>
<path d="M44.394 30.8627L45.3977 31.3465L45.5556 30.9951L44.5519 30.5114L44.394 30.8627Z" fill="black"/>
<path d="M55.4397 36.1794L55.5976 35.828L54.5939 35.3442L54.4351 35.6956L55.4397 36.1794Z" fill="black"/>
<path d="M59.6142 37.7613L58.6105 37.2775L58.4526 37.6289L59.4563 38.1127L59.6142 37.7613Z" fill="black"/>
<path d="M57.6059 36.7947L56.6022 36.3119L56.4443 36.6623L57.448 37.1461L57.6059 36.7947Z" fill="black"/>
<path d="M40.3755 28.9296L41.3811 29.4134L41.539 29.062L40.5344 28.5782L40.3755 28.9296Z" fill="black"/>
<path d="M65.64 40.6609L64.6354 40.1781L64.4775 40.5285L65.4821 41.0123L65.64 40.6609Z" fill="black"/>
<path d="M50.4189 33.7625L51.4236 34.2463L51.5814 33.8949L50.5768 33.4111L50.4189 33.7625Z" fill="black"/>
<path d="M38.3677 27.9631L39.3723 28.4459L39.5302 28.0955L38.5256 27.6117L38.3677 27.9631Z" fill="black"/>
<path d="M47.5648 31.9618L46.5602 31.479L46.4023 31.8294L47.406 32.3132L47.5648 31.9618Z" fill="black"/>
<path d="M32.3428 25.0633L33.3464 25.5461L33.5043 25.1957L32.5007 24.7119L32.3428 25.0633Z" fill="black"/>
<path d="M24.3091 21.1971L25.3137 21.6799L25.4716 21.3295L24.467 20.8457L24.3091 21.1971Z" fill="black"/>
<path d="M34.3511 26.0299L35.3547 26.5137L35.5136 26.1623L34.509 25.6785L34.3511 26.0299Z" fill="black"/>
<path d="M36.3594 26.9965L37.364 27.4793L37.5219 27.1289L36.5173 26.6451L36.3594 26.9965Z" fill="black"/>
<path d="M48.4106 32.796L49.4153 33.2798L49.5731 32.9284L48.5685 32.4446L48.4106 32.796Z" fill="black"/>
<path d="M79.8762 65.9426V46.5907H77.6331L77.6913 46.4614L77.6894 46.4604L77.7624 46.329L76.7933 45.7515L76.6068 46.0866L76.6325 46.1018L76.5851 46.2037L76.5792 46.2017L76.5535 46.275L76.5289 46.329L76.5328 46.331L76.4953 46.438L76.4667 46.4298L76.4252 46.5907H75.2055L75.2233 46.4858L75.2884 46.5042L75.3762 46.163L75.4068 46.1742L75.5242 45.8431L75.6812 45.4938L75.6506 45.4785L75.8213 45.173L74.8522 44.5955L74.6657 44.9306L75.3131 45.3166L74.6775 45.011L74.5196 45.3624L75.1493 45.6649L74.4969 45.4194L74.3677 45.7831L75.0249 46.0295L74.3045 45.8309L74.2078 46.2047L74.9321 46.4043L74.1042 46.2536L74.046 46.5897H72.7048L71.8315 46.5103L71.8246 46.5897H70.6917L70.7075 46.4094L69.5815 46.3076L69.5578 46.5897H68.4249L68.4575 46.2068L67.3315 46.1049L67.2989 46.4909L68.3973 46.5907H22.1242V65.9426H13.9937V67.4918H22.1242H79.8752H88.0068V65.9426H79.8762ZM23.6242 65.9426V48.1389H78.3762V65.9426H23.6242Z" fill="black"/>
</g>
<path d="M40.8295 79.4545C40.7784 79.0227 40.571 78.6875 40.2074 78.4489C39.8438 78.2102 39.3977 78.0909 38.8693 78.0909C38.483 78.0909 38.1449 78.1534 37.8551 78.2784C37.5682 78.4034 37.3438 78.5753 37.1818 78.794C37.0227 79.0128 36.9432 79.2614 36.9432 79.5398C36.9432 79.7727 36.9986 79.973 37.1094 80.1406C37.223 80.3054 37.3679 80.4432 37.544 80.554C37.7202 80.6619 37.9048 80.7514 38.098 80.8224C38.2912 80.8906 38.4688 80.946 38.6307 80.9886L39.517 81.2273C39.7443 81.2869 39.9972 81.3693 40.2756 81.4744C40.5568 81.5795 40.8253 81.723 41.081 81.9048C41.3395 82.0838 41.5526 82.3139 41.7202 82.5952C41.8878 82.8764 41.9716 83.2216 41.9716 83.6307C41.9716 84.1023 41.848 84.5284 41.6009 84.9091C41.3565 85.2898 40.9986 85.5923 40.527 85.8168C40.0582 86.0412 39.4886 86.1534 38.8182 86.1534C38.1932 86.1534 37.652 86.0526 37.1946 85.8509C36.7401 85.6491 36.3821 85.3679 36.1207 85.0071C35.8622 84.6463 35.7159 84.2273 35.6818 83.75H36.7727C36.8011 84.0795 36.9119 84.3523 37.1051 84.5682C37.3011 84.7812 37.5483 84.9403 37.8466 85.0455C38.1477 85.1477 38.4716 85.1989 38.8182 85.1989C39.2216 85.1989 39.5838 85.1335 39.9048 85.0028C40.2259 84.8693 40.4801 84.6847 40.6676 84.4489C40.8551 84.2102 40.9489 83.9318 40.9489 83.6136C40.9489 83.3239 40.8679 83.0881 40.706 82.9062C40.544 82.7244 40.331 82.5767 40.0668 82.4631C39.8026 82.3494 39.517 82.25 39.2102 82.1648L38.1364 81.858C37.4545 81.6619 36.9148 81.3821 36.517 81.0185C36.1193 80.6548 35.9205 80.179 35.9205 79.5909C35.9205 79.1023 36.0526 78.6761 36.3168 78.3125C36.5838 77.946 36.9418 77.6619 37.3906 77.4602C37.8423 77.2557 38.3466 77.1534 38.9034 77.1534C39.4659 77.1534 39.9659 77.2543 40.4034 77.456C40.8409 77.6548 41.1875 77.9276 41.4432 78.2741C41.7017 78.6207 41.8381 79.0142 41.8523 79.4545H40.8295ZM44.5785 77.2727V86H43.5728V77.2727H44.5785ZM49.0795 86.1364C48.4886 86.1364 47.9702 85.9957 47.5241 85.7145C47.081 85.4332 46.7344 85.0398 46.4844 84.5341C46.2372 84.0284 46.1136 83.4375 46.1136 82.7614C46.1136 82.0795 46.2372 81.4844 46.4844 80.9759C46.7344 80.4673 47.081 80.0724 47.5241 79.7912C47.9702 79.5099 48.4886 79.3693 49.0795 79.3693C49.6705 79.3693 50.1875 79.5099 50.6307 79.7912C51.0767 80.0724 51.4233 80.4673 51.6705 80.9759C51.9205 81.4844 52.0455 82.0795 52.0455 82.7614C52.0455 83.4375 51.9205 84.0284 51.6705 84.5341C51.4233 85.0398 51.0767 85.4332 50.6307 85.7145C50.1875 85.9957 49.6705 86.1364 49.0795 86.1364ZM49.0795 85.233C49.5284 85.233 49.8977 85.1179 50.1875 84.8878C50.4773 84.6577 50.6918 84.3551 50.831 83.9801C50.9702 83.6051 51.0398 83.1989 51.0398 82.7614C51.0398 82.3239 50.9702 81.9162 50.831 81.5384C50.6918 81.1605 50.4773 80.8551 50.1875 80.6222C49.8977 80.3892 49.5284 80.2727 49.0795 80.2727C48.6307 80.2727 48.2614 80.3892 47.9716 80.6222C47.6818 80.8551 47.4673 81.1605 47.3281 81.5384C47.1889 81.9162 47.1193 82.3239 47.1193 82.7614C47.1193 83.1989 47.1889 83.6051 47.3281 83.9801C47.4673 84.3551 47.6818 84.6577 47.9716 84.8878C48.2614 85.1179 48.6307 85.233 49.0795 85.233ZM53.5806 88.4545V79.4545H54.5522V80.4943H54.6715C54.7454 80.3807 54.8477 80.2358 54.9783 80.0597C55.1119 79.8807 55.3022 79.7216 55.5494 79.5824C55.7994 79.4403 56.1374 79.3693 56.5636 79.3693C57.1147 79.3693 57.6005 79.5071 58.021 79.7827C58.4414 80.0582 58.7695 80.4489 59.0053 80.9545C59.2411 81.4602 59.359 82.0568 59.359 82.7443C59.359 83.4375 59.2411 84.0384 59.0053 84.5469C58.7695 85.0526 58.4428 85.4446 58.0252 85.723C57.6076 85.9986 57.1261 86.1364 56.5806 86.1364C56.1602 86.1364 55.8235 86.0668 55.5707 85.9276C55.3178 85.7855 55.1232 85.625 54.9869 85.446C54.8505 85.2642 54.7454 85.1136 54.6715 84.9943H54.5863V88.4545H53.5806ZM54.5692 82.7273C54.5692 83.2216 54.6417 83.6577 54.7866 84.0355C54.9315 84.4105 55.1431 84.7045 55.4215 84.9176C55.6999 85.1278 56.0408 85.233 56.4442 85.233C56.8647 85.233 57.2156 85.1222 57.4968 84.9006C57.7809 84.6761 57.994 84.375 58.136 83.9972C58.2809 83.6165 58.3533 83.1932 58.3533 82.7273C58.3533 82.267 58.2823 81.8523 58.1403 81.483C58.0011 81.1108 57.7894 80.8168 57.5053 80.6009C57.2241 80.3821 56.8704 80.2727 56.4442 80.2727C56.0352 80.2727 55.6914 80.3764 55.413 80.5838C55.1346 80.7884 54.9244 81.0753 54.7823 81.4446C54.6403 81.8111 54.5692 82.2386 54.5692 82.7273ZM63.6374 86.1364C63.0067 86.1364 62.4627 85.9972 62.0053 85.7188C61.5508 85.4375 61.1999 85.0455 60.9528 84.5426C60.7085 84.0369 60.5863 83.4489 60.5863 82.7784C60.5863 82.108 60.7085 81.517 60.9528 81.0057C61.1999 80.4915 61.5437 80.0909 61.984 79.804C62.4272 79.5142 62.9442 79.3693 63.5352 79.3693C63.8761 79.3693 64.2127 79.4261 64.5451 79.5398C64.8775 79.6534 65.18 79.8381 65.4528 80.0938C65.7255 80.3466 65.9428 80.6818 66.1048 81.0994C66.2667 81.517 66.3477 82.0312 66.3477 82.642V83.0682H61.3022V82.1989H65.3249C65.3249 81.8295 65.2511 81.5 65.1033 81.2102C64.9585 80.9205 64.7511 80.6918 64.4812 80.5241C64.2141 80.3565 63.8988 80.2727 63.5352 80.2727C63.1346 80.2727 62.788 80.3722 62.4954 80.571C62.2056 80.767 61.9826 81.0227 61.8263 81.3381C61.6701 81.6534 61.592 81.9915 61.592 82.3523V82.9318C61.592 83.4261 61.6772 83.8452 61.8477 84.1889C62.021 84.5298 62.261 84.7898 62.5678 84.9688C62.8746 85.1449 63.2312 85.233 63.6374 85.233C63.9016 85.233 64.1403 85.196 64.3533 85.1222C64.5692 85.0455 64.7553 84.9318 64.9116 84.7812C65.0678 84.6278 65.1886 84.4375 65.2738 84.2102L66.2454 84.483C66.1431 84.8125 65.9712 85.1023 65.7298 85.3523C65.4883 85.5994 65.19 85.7926 64.8349 85.9318C64.4798 86.0682 64.0806 86.1364 63.6374 86.1364Z" fill="black"/>
<path d="M1 5C1 2.79086 2.79086 1 5 1H101V101H5C2.79086 101 1 99.2091 1 97V5Z" stroke="#E4E7EC"/>
<defs>
<clipPath id="clip0_54_980">
<rect width="75" height="55" fill="white" transform="translate(13.5 13)"/>
</clipPath>
</defs>
</svg>
