<svg width="102" height="102" viewBox="0 0 102 102" fill="none" xmlns="http://www.w3.org/2000/svg">
<path d="M1 5C1 2.79086 2.79086 1 5 1H101V101H5C2.79086 101 1 99.2091 1 97V5Z" fill="white"/>
<g clip-path="url(#clip0_55_1552)">
<path d="M40.5549 43.7823L39.459 44.0454L39.5302 44.342L40.6261 44.0788L40.5549 43.7823Z" fill="black"/>
<path d="M42.7468 43.2553L41.6509 43.5184L41.7221 43.815L42.818 43.5519L42.7468 43.2553Z" fill="black"/>
<path d="M63.6431 44.3081L63.5718 44.6046L64.6676 44.8682L64.7389 44.5717L63.6431 44.3081Z" fill="black"/>
<path d="M68.0264 45.3623L67.9551 45.6588L69.0509 45.9224L69.1222 45.6259L68.0264 45.3623Z" fill="black"/>
<path d="M36.1715 44.8356L35.0757 45.0992L35.147 45.3958L36.2428 45.1322L36.1715 44.8356Z" fill="black"/>
<path d="M43.8408 42.9889L43.9118 43.2879L45.0078 43.025L44.9368 42.726L43.8408 42.9889Z" fill="black"/>
<path d="M65.8329 44.8334L65.7617 45.13L66.8576 45.3932L66.9288 45.0966L65.8329 44.8334Z" fill="black"/>
<path d="M38.3625 44.3102L37.2666 44.5734L37.3378 44.8699L38.4337 44.6068L38.3625 44.3102Z" fill="black"/>
<path d="M57.0669 42.7274L56.9956 43.0239L58.0914 43.2875L58.1627 42.991L57.0669 42.7274Z" fill="black"/>
<path d="M49.3229 41.6741L48.2271 41.9373L48.2983 42.2338L49.3942 41.9707L49.3229 41.6741Z" fill="black"/>
<path d="M54.8746 42.2002L54.8032 42.4967L55.899 42.7603L55.9703 42.4638L54.8746 42.2002Z" fill="black"/>
<path d="M51 41.5829L51.513 41.7059L51.584 41.4089L51 41.2679L50.417 41.4089L50.488 41.7059L51 41.5829Z" fill="black"/>
<path d="M61.4502 43.7806L61.3789 44.0771L62.4747 44.3408L62.546 44.0442L61.4502 43.7806Z" fill="black"/>
<path d="M47.131 42.2011L46.0352 42.4642L46.1064 42.7608L47.2023 42.4977L47.131 42.2011Z" fill="black"/>
<path d="M59.2588 43.2536L59.1875 43.5502L60.2833 43.8138L60.3546 43.5172L59.2588 43.2536Z" fill="black"/>
<path d="M52.6827 41.6731L52.6113 41.9696L53.7071 42.2332L53.7784 41.9367L52.6827 41.6731Z" fill="black"/>
<path d="M33.9791 45.3627L32.8833 45.6263L32.9546 45.9229L34.0504 45.6593L33.9791 45.3627Z" fill="black"/>
<path d="M30.761 46.451L31.857 46.188L31.786 45.889L30.689 46.152L30.761 46.451Z" fill="black"/>
<path d="M27.4039 46.9439L26.3081 47.2075L26.3794 47.5041L27.4752 47.2405L27.4039 46.9439Z" fill="black"/>
<path d="M29.5963 46.4168L28.5005 46.6804L28.5718 46.977L29.6676 46.7134L29.5963 46.4168Z" fill="black"/>
<path d="M73.503 46.679L72.407 46.417L72.335 46.715L73.432 46.978L73.503 46.679Z" fill="black"/>
<path d="M74.6021 46.9438L74.5308 47.2404L75.6265 47.504L75.6979 47.2074L74.6021 46.9438Z" fill="black"/>
<path d="M70.2193 45.8896L70.1479 46.1862L71.2437 46.4498L71.3151 46.1532L70.2193 45.8896Z" fill="black"/>
<path d="M31.2199 44.123L31.0839 43.847L30.0659 44.352L30.2019 44.627L31.2199 44.123Z" fill="black"/>
<path d="M45.3344 36.7709L44.3169 37.2761L44.4525 37.5493L45.47 37.0441L45.3344 36.7709Z" fill="black"/>
<path d="M43.4328 38.0571L43.2958 37.7841L42.2788 38.2901L42.4158 38.5631L43.4328 38.0571Z" fill="black"/>
<path d="M27.0151 45.8679L25.9976 46.373L26.1332 46.6462L27.1507 46.1411L27.0151 45.8679Z" fill="black"/>
<path d="M49.5402 35.027L49.4042 34.751L48.3862 35.256L48.5212 35.532L49.5402 35.027Z" fill="black"/>
<path d="M29.0497 44.8571L28.0322 45.3623L28.1679 45.6355L29.1854 45.1303L29.0497 44.8571Z" fill="black"/>
<path d="M47.5041 36.038L47.3681 35.762L46.3501 36.267L46.4861 36.542L47.5041 36.038Z" fill="black"/>
<path d="M35.2912 42.1L35.1542 41.827L34.1372 42.333L34.2732 42.606L35.2912 42.1Z" fill="black"/>
<path d="M41.3982 39.0679L41.2612 38.7939L40.2432 39.2999L40.3802 39.5739L41.3982 39.0679Z" fill="black"/>
<path d="M37.3269 41.089L37.1899 40.816L36.1719 41.322L36.3089 41.595L37.3269 41.089Z" fill="black"/>
<path d="M33.1205 42.8349L32.103 43.3401L32.2391 43.6142L33.2566 43.109L33.1205 42.8349Z" fill="black"/>
<path d="M39.362 40.0791L39.226 39.8051L38.208 40.3111L38.344 40.5841L39.362 40.0791Z" fill="black"/>
<path d="M50.9999 34.301L51.4429 34.521L51.5789 34.246L50.9999 33.959L50.4209 34.246L50.5569 34.521L50.9999 34.301Z" fill="black"/>
<path d="M52.5985 34.7545L52.4629 35.0277L53.4805 35.5327L53.6161 35.2594L52.5985 34.7545Z" fill="black"/>
<path d="M54.6336 35.7646L54.498 36.0378L55.5157 36.5428L55.6512 36.2696L54.6336 35.7646Z" fill="black"/>
<path d="M76.0061 46.375L74.9881 45.869L74.8511 46.142L75.8691 46.648L76.0061 46.375Z" fill="black"/>
<path d="M61.757 39.2999L60.739 38.7939L60.6021 39.0679L61.62 39.5739L61.757 39.2999Z" fill="black"/>
<path d="M59.7209 38.2891L58.7029 37.7841L58.5669 38.0591L59.5849 38.5641L59.7209 38.2891Z" fill="black"/>
<path d="M68.8809 42.8409L68.7451 43.1151L69.7631 43.6193L69.8989 43.3451L68.8809 42.8409Z" fill="black"/>
<path d="M56.6698 36.7751L56.5342 37.0483L57.5518 37.5533L57.6874 37.2801L56.6698 36.7751Z" fill="black"/>
<path d="M73.9699 45.364L72.9519 44.858L72.8149 45.131L73.8329 45.637L73.9699 45.364Z" fill="black"/>
<path d="M71.9338 44.352L70.9158 43.847L70.7798 44.123L71.7978 44.627L71.9338 44.352Z" fill="black"/>
<path d="M63.7922 40.3111L62.7742 39.8051L62.6382 40.0791L63.6562 40.5841L63.7922 40.3111Z" fill="black"/>
<path d="M64.8118 40.8175L64.6763 41.0907L65.6939 41.5956L65.8295 41.3224L64.8118 40.8175Z" fill="black"/>
<path d="M66.8479 41.8282L66.7119 42.1023L67.7295 42.6072L67.8656 42.3331L66.8479 41.8282Z" fill="black"/>
<path d="M77.8012 48.028L77.8152 48.032L77.8682 47.815L77.9632 47.555L77.9572 47.553L78.0412 47.384L77.0232 46.879L76.8872 47.153L76.9582 47.188L76.9072 47.169L76.8022 47.457L76.9412 47.507L76.7912 47.471L76.7192 47.768L76.9342 47.82L76.6732 47.789L76.6372 48.093L77.7772 48.229L77.8012 48.028Z" fill="black"/>
<path d="M72.111 47.2429L72.0747 47.5477L73.2147 47.6834L73.251 47.3786L72.111 47.2429Z" fill="black"/>
<path d="M56.1486 45.3374L56.1123 45.6422L57.2523 45.7779L57.2886 45.4731L56.1486 45.3374Z" fill="black"/>
<path d="M65.2726 46.4292L65.2363 46.734L66.3773 46.8698L66.4136 46.565L65.2726 46.4292Z" fill="black"/>
<path d="M60.6738 46.1881L61.8138 46.3251L61.8498 46.0201L60.7098 45.8831L60.6738 46.1881Z" fill="black"/>
<path d="M67.5151 47.004L68.6551 47.1409L68.6911 46.8359L67.5511 46.7L67.5151 47.004Z" fill="black"/>
<path d="M75.533 47.653L74.392 47.516L74.356 47.821L75.497 47.958L75.533 47.653Z" fill="black"/>
<path d="M62.9894 46.1535L62.9531 46.4584L64.0931 46.5941L64.1294 46.2892L62.9894 46.1535Z" fill="black"/>
<path d="M69.8302 46.9701L69.7939 47.2749L70.9339 47.4106L70.9702 47.1057L69.8302 46.9701Z" fill="black"/>
<path d="M58.4289 45.6102L58.3926 45.915L59.5325 46.0507L59.5688 45.7459L58.4289 45.6102Z" fill="black"/>
<path d="M43.5706 45.6092L42.4307 45.7444L42.4668 46.0492L43.6068 45.914L43.5706 45.6092Z" fill="black"/>
<path d="M35.6249 46.869L36.7659 46.732L36.7289 46.427L35.5889 46.564L35.6249 46.869Z" fill="black"/>
<path d="M32.1683 46.9736L31.0283 47.1093L31.0646 47.4141L32.2046 47.2784L32.1683 46.9736Z" fill="black"/>
<path d="M28.785 47.685L29.925 47.548L29.889 47.244L28.749 47.38L28.785 47.685Z" fill="black"/>
<path d="M48.1682 45.372L48.1322 45.067L46.9922 45.204L47.0282 45.508L48.1682 45.372Z" fill="black"/>
<path d="M39.0101 46.1532L37.8701 46.2885L37.9063 46.5933L39.0462 46.4581L39.0101 46.1532Z" fill="black"/>
<path d="M34.4481 46.7016L33.3081 46.8373L33.3444 47.1421L34.4844 47.0064L34.4481 46.7016Z" fill="black"/>
<path d="M41.3269 46.1881L41.2909 45.8831L40.1499 46.0201L40.1869 46.3251L41.3269 46.1881Z" fill="black"/>
<path d="M45.8504 45.336L44.7104 45.4712L44.7466 45.776L45.8866 45.6408L45.8504 45.336Z" fill="black"/>
<path d="M51.5885 44.7937L51.5522 45.0985L52.6922 45.2342L52.7285 44.9294L51.5885 44.7937Z" fill="black"/>
<path d="M50.4114 44.7919L49.2715 44.9271L49.3076 45.232L50.4476 45.0967L50.4114 44.7919Z" fill="black"/>
<path d="M53.833 45.372L54.973 45.508L55.009 45.204L53.869 45.067L53.833 45.372Z" fill="black"/>
<path d="M27.6072 47.5175L26.4673 47.6532L26.5036 47.958L27.6435 47.8224L27.6072 47.5175Z" fill="black"/>
<path d="M73.7421 46.012L72.6861 45.626L72.5811 45.914L73.6361 46.299L73.7421 46.012Z" fill="black"/>
<path d="M24.037 47.555L24.134 47.819L24.185 48.032L24.2 48.028L24.224 48.229L25.364 48.093L25.328 47.789L25.067 47.82L25.281 47.768L25.21 47.471L25.057 47.508L25.198 47.457L25.092 47.169L25.051 47.185L25.113 47.154L24.977 46.88L23.959 47.385L24.043 47.553L24.037 47.555Z" fill="black"/>
<path d="M26.2529 47.0709L27.3089 46.685L27.2029 46.3979L26.1479 46.784L26.2529 47.0709Z" fill="black"/>
<path d="M69.5209 44.469L68.4649 44.083L68.3589 44.371L69.4149 44.756L69.5209 44.469Z" fill="black"/>
<path d="M28.3638 46.299L29.4188 45.914L29.3128 45.626L28.2578 46.012L28.3638 46.299Z" fill="black"/>
<path d="M34.6958 43.985L35.7508 43.599L35.6458 43.312L34.5898 43.698L34.6958 43.985Z" fill="black"/>
<path d="M56.8568 39.84L55.8018 39.455L55.6958 39.742L56.7508 40.127L56.8568 39.84Z" fill="black"/>
<path d="M30.4751 45.528L31.5301 45.142L31.4241 44.855L30.3691 45.241L30.4751 45.528Z" fill="black"/>
<path d="M71.6312 45.241L70.5762 44.855L70.4702 45.142L71.5252 45.528L71.6312 45.241Z" fill="black"/>
<path d="M32.585 44.756L33.64 44.371L33.535 44.083L32.479 44.469L32.585 44.756Z" fill="black"/>
<path d="M75.8519 46.784L74.7969 46.3979L74.6909 46.685L75.7469 47.0709L75.8519 46.784Z" fill="black"/>
<path d="M49.4698 38.584L50.5248 38.199L50.4188 37.912L49.3638 38.297L49.4698 38.584Z" fill="black"/>
<path d="M61.078 41.383L60.023 40.998L59.917 41.285L60.973 41.67L61.078 41.383Z" fill="black"/>
<path d="M47.3589 39.356L48.4149 38.97L48.3089 38.683L47.2539 39.069L47.3589 39.356Z" fill="black"/>
<path d="M45.2491 40.127L46.3041 39.742L46.1981 39.455L45.1431 39.84L45.2491 40.127Z" fill="black"/>
<path d="M54.641 39.356L54.746 39.069L53.691 38.683L53.585 38.97L54.641 39.356Z" fill="black"/>
<path d="M52.5301 38.584L52.6361 38.297L51.5811 37.912L51.4751 38.199L52.5301 38.584Z" fill="black"/>
<path d="M58.9671 40.6119L57.9121 40.226L57.8071 40.513L58.8621 40.8989L58.9671 40.6119Z" fill="black"/>
<path d="M36.8062 43.213L37.8612 42.828L37.7562 42.541L36.7012 42.926L36.8062 43.213Z" fill="black"/>
<path d="M41.0269 41.67L42.0829 41.285L41.9769 40.998L40.9219 41.383L41.0269 41.67Z" fill="black"/>
<path d="M38.917 42.442L39.972 42.056L39.867 41.769L38.812 42.155L38.917 42.442Z" fill="black"/>
<path d="M67.41 43.698L66.354 43.312L66.249 43.599L67.304 43.985L67.41 43.698Z" fill="black"/>
<path d="M43.1382 40.8989L44.1932 40.513L44.0882 40.226L43.0332 40.6119L43.1382 40.8989Z" fill="black"/>
<path d="M65.2992 42.926L64.2442 42.541L64.1392 42.828L65.1942 43.213L65.2992 42.926Z" fill="black"/>
<path d="M63.1878 42.155L62.1328 41.769L62.0278 42.056L63.0828 42.442L63.1878 42.155Z" fill="black"/>
<path d="M79.501 66.521V48.282V48.28L79.569 48.143L79.058 47.889L79.03 47.944L79.017 47.939L78.995 48L78.982 47.997L78.966 48.061L78.951 48.059L78.945 48.113L78.921 48.162L78.933 48.168L78.912 48.226L78.925 48.231L78.913 48.279H23.086L23.074 48.231L23.087 48.226L23.066 48.168L23.078 48.162L23.054 48.113L23.048 48.059L23.033 48.061L23.017 47.997L23.004 48L22.982 47.939L22.969 47.944L22.941 47.889L22.43 48.143L22.498 48.28V48.282V66.521H13.5V68.041H88.5V66.521H79.501ZM24.019 49.801H77.98V65.762H24.019V49.801Z" fill="black"/>
</g>
<path d="M28.9506 78.2102V77.2727H35.4961V78.2102H32.7518V86H31.695V78.2102H28.9506ZM36.3111 86V79.4545H37.2827V80.4432H37.3509C37.4702 80.1193 37.6861 79.8565 37.9986 79.6548C38.3111 79.4531 38.6634 79.3523 39.0554 79.3523C39.1293 79.3523 39.2216 79.3537 39.3324 79.3565C39.4432 79.3594 39.527 79.3636 39.5838 79.3693V80.392C39.5497 80.3835 39.4716 80.3707 39.3494 80.3537C39.2301 80.3338 39.1037 80.3239 38.9702 80.3239C38.652 80.3239 38.3679 80.3906 38.1179 80.5241C37.8707 80.6548 37.6747 80.8366 37.5298 81.0696C37.3878 81.2997 37.3168 81.5625 37.3168 81.858V86H36.3111ZM40.7759 86V79.4545H41.7816V86H40.7759ZM41.2873 78.3636C41.0913 78.3636 40.9222 78.2969 40.7802 78.1634C40.641 78.0298 40.5714 77.8693 40.5714 77.6818C40.5714 77.4943 40.641 77.3338 40.7802 77.2003C40.9222 77.0668 41.0913 77 41.2873 77C41.4833 77 41.6509 77.0668 41.7901 77.2003C41.9322 77.3338 42.0032 77.4943 42.0032 77.6818C42.0032 77.8693 41.9322 78.0298 41.7901 78.1634C41.6509 78.2969 41.4833 78.3636 41.2873 78.3636ZM45.5497 86.1534C45.1349 86.1534 44.7585 86.0753 44.4205 85.919C44.0824 85.7599 43.8139 85.5312 43.6151 85.233C43.4162 84.9318 43.3168 84.5682 43.3168 84.142C43.3168 83.767 43.3906 83.4631 43.5384 83.2301C43.6861 82.9943 43.8835 82.8097 44.1307 82.6761C44.3778 82.5426 44.6506 82.4432 44.9489 82.3778C45.25 82.3097 45.5526 82.2557 45.8565 82.2159C46.2543 82.1648 46.5767 82.1264 46.8239 82.1009C47.0739 82.0724 47.2557 82.0256 47.3693 81.9602C47.4858 81.8949 47.544 81.7812 47.544 81.6193V81.5852C47.544 81.1648 47.429 80.8381 47.1989 80.6051C46.9716 80.3722 46.6264 80.2557 46.1634 80.2557C45.6832 80.2557 45.3068 80.3608 45.0341 80.571C44.7614 80.7812 44.5696 81.0057 44.4588 81.2443L43.5043 80.9034C43.6747 80.5057 43.902 80.196 44.1861 79.9744C44.473 79.75 44.7855 79.5937 45.1236 79.5057C45.4645 79.4148 45.7997 79.3693 46.1293 79.3693C46.3395 79.3693 46.581 79.3949 46.8537 79.446C47.1293 79.4943 47.3949 79.5952 47.6506 79.7486C47.9091 79.902 48.1236 80.1335 48.294 80.4432C48.4645 80.7528 48.5497 81.1676 48.5497 81.6875V86H47.544V85.1136H47.4929C47.4247 85.2557 47.3111 85.4077 47.152 85.5696C46.9929 85.7315 46.7813 85.8693 46.517 85.983C46.2528 86.0966 45.9304 86.1534 45.5497 86.1534ZM45.7031 85.25C46.1009 85.25 46.4361 85.1719 46.7088 85.0156C46.9844 84.8594 47.1918 84.6577 47.331 84.4105C47.473 84.1634 47.544 83.9034 47.544 83.6307V82.7102C47.5014 82.7614 47.4077 82.8082 47.2628 82.8509C47.1207 82.8906 46.956 82.9261 46.7685 82.9574C46.5838 82.9858 46.4034 83.0114 46.2273 83.0341C46.054 83.054 45.9134 83.071 45.8054 83.0852C45.544 83.1193 45.2997 83.1747 45.0724 83.2514C44.848 83.3253 44.6662 83.4375 44.527 83.5881C44.3906 83.7358 44.3224 83.9375 44.3224 84.1932C44.3224 84.5426 44.4517 84.8068 44.7102 84.9858C44.9716 85.1619 45.3026 85.25 45.7031 85.25ZM51.391 82.0625V86H50.3853V79.4545H51.3569V80.4773H51.4421C51.5955 80.1449 51.8285 79.8778 52.141 79.6761C52.4535 79.4716 52.8569 79.3693 53.3512 79.3693C53.7944 79.3693 54.1822 79.4602 54.5146 79.642C54.8469 79.821 55.1055 80.0938 55.2901 80.4602C55.4748 80.8239 55.5671 81.2841 55.5671 81.8409V86H54.5614V81.9091C54.5614 81.3949 54.4279 80.9943 54.1609 80.7074C53.8938 80.4176 53.5273 80.2727 53.0614 80.2727C52.7404 80.2727 52.4535 80.3423 52.2006 80.4815C51.9506 80.6207 51.7532 80.8239 51.6083 81.0909C51.4634 81.358 51.391 81.6818 51.391 82.0625ZM60.0469 88.5909C59.5611 88.5909 59.1435 88.5284 58.794 88.4034C58.4446 88.2812 58.1534 88.1193 57.9205 87.9176C57.6903 87.7188 57.5071 87.5057 57.3707 87.2784L58.1719 86.7159C58.2628 86.8352 58.3778 86.9716 58.517 87.125C58.6563 87.2812 58.8466 87.4162 59.0881 87.5298C59.3324 87.6463 59.652 87.7045 60.0469 87.7045C60.5753 87.7045 61.0114 87.5767 61.3551 87.321C61.6989 87.0653 61.8707 86.6648 61.8707 86.1193V84.7898H61.7855C61.7116 84.9091 61.6065 85.0568 61.4702 85.233C61.3366 85.4062 61.1435 85.5611 60.8906 85.6974C60.6406 85.831 60.3026 85.8977 59.8764 85.8977C59.348 85.8977 58.8736 85.7727 58.4531 85.5227C58.0355 85.2727 57.7045 84.9091 57.4602 84.4318C57.2188 83.9545 57.098 83.375 57.098 82.6932C57.098 82.0227 57.2159 81.4389 57.4517 80.9418C57.6875 80.4418 58.0156 80.0554 58.4361 79.7827C58.8565 79.5071 59.3423 79.3693 59.8935 79.3693C60.3196 79.3693 60.6577 79.4403 60.9077 79.5824C61.1605 79.7216 61.3537 79.8807 61.4872 80.0597C61.6236 80.2358 61.7287 80.3807 61.8026 80.4943H61.9048V79.4545H62.8764V86.1875C62.8764 86.75 62.7486 87.2074 62.4929 87.5597C62.2401 87.9148 61.8991 88.1747 61.4702 88.3395C61.044 88.5071 60.5696 88.5909 60.0469 88.5909ZM60.0128 84.9943C60.4162 84.9943 60.7571 84.902 61.0355 84.7173C61.3139 84.5327 61.5256 84.267 61.6705 83.9205C61.8153 83.5739 61.8878 83.1591 61.8878 82.6761C61.8878 82.2045 61.8168 81.7884 61.6747 81.4276C61.5327 81.0668 61.3224 80.7841 61.044 80.5795C60.7656 80.375 60.4219 80.2727 60.0128 80.2727C59.5866 80.2727 59.2315 80.3807 58.9474 80.5966C58.6662 80.8125 58.4545 81.1023 58.3125 81.4659C58.1733 81.8295 58.1037 82.233 58.1037 82.6761C58.1037 83.1307 58.1747 83.5327 58.3168 83.8821C58.4616 84.2287 58.6747 84.5014 58.956 84.7003C59.2401 84.8963 59.5923 84.9943 60.0128 84.9943ZM65.723 77.2727V86H64.7173V77.2727H65.723ZM70.3093 86.1364C69.6786 86.1364 69.1346 85.9972 68.6772 85.7188C68.2227 85.4375 67.8718 85.0455 67.6246 84.5426C67.3803 84.0369 67.2582 83.4489 67.2582 82.7784C67.2582 82.108 67.3803 81.517 67.6246 81.0057C67.8718 80.4915 68.2156 80.0909 68.6559 79.804C69.0991 79.5142 69.6161 79.3693 70.207 79.3693C70.5479 79.3693 70.8846 79.4261 71.217 79.5398C71.5494 79.6534 71.8519 79.8381 72.1246 80.0938C72.3974 80.3466 72.6147 80.6818 72.7766 81.0994C72.9386 81.517 73.0195 82.0312 73.0195 82.642V83.0682H67.9741V82.1989H71.9968C71.9968 81.8295 71.9229 81.5 71.7752 81.2102C71.6303 80.9205 71.4229 80.6918 71.1531 80.5241C70.886 80.3565 70.5707 80.2727 70.207 80.2727C69.8065 80.2727 69.4599 80.3722 69.1673 80.571C68.8775 80.767 68.6545 81.0227 68.4982 81.3381C68.342 81.6534 68.2638 81.9915 68.2638 82.3523V82.9318C68.2638 83.4261 68.3491 83.8452 68.5195 84.1889C68.6928 84.5298 68.9329 84.7898 69.2397 84.9688C69.5465 85.1449 69.9031 85.233 70.3093 85.233C70.5735 85.233 70.8121 85.196 71.0252 85.1222C71.2411 85.0455 71.4272 84.9318 71.5835 84.7812C71.7397 84.6278 71.8604 84.4375 71.9457 84.2102L72.9173 84.483C72.815 84.8125 72.6431 85.1023 72.4016 85.3523C72.1602 85.5994 71.8619 85.7926 71.5067 85.9318C71.1516 86.0682 70.7525 86.1364 70.3093 86.1364Z" fill="black"/>
<path d="M1 5C1 2.79086 2.79086 1 5 1H101V101H5C2.79086 101 1 99.2091 1 97V5Z" stroke="#E4E7EC"/>
<defs>
<clipPath id="clip0_55_1552">
<rect width="76" height="35" fill="white" transform="translate(13 33.5)"/>
</clipPath>
</defs>
</svg>
