<svg width="102" height="102" viewBox="0 0 102 102" fill="none" xmlns="http://www.w3.org/2000/svg">
<path d="M1 5C1 2.79086 2.79086 1 5 1H101V101H5C2.79086 101 1 99.2091 1 97V5Z" fill="white"/>
<path d="M39.4831 77.2727L42.074 84.6193H42.1763L44.7672 77.2727H45.8752L42.6706 86H41.5797L38.3752 77.2727H39.4831ZM49.2331 86.1364C48.6025 86.1364 48.0584 85.9972 47.601 85.7188C47.1465 85.4375 46.7956 85.0455 46.5485 84.5426C46.3042 84.0369 46.182 83.4489 46.182 82.7784C46.182 82.108 46.3042 81.517 46.5485 81.0057C46.7956 80.4915 47.1394 80.0909 47.5797 79.804C48.0229 79.5142 48.54 79.3693 49.1309 79.3693C49.4718 79.3693 49.8084 79.4261 50.1408 79.5398C50.4732 79.6534 50.7757 79.8381 51.0485 80.0938C51.3212 80.3466 51.5385 80.6818 51.7005 81.0994C51.8624 81.517 51.9434 82.0312 51.9434 82.642V83.0682H46.8979V82.1989H50.9206C50.9206 81.8295 50.8468 81.5 50.699 81.2102C50.5542 80.9205 50.3468 80.6918 50.0769 80.5241C49.8098 80.3565 49.4945 80.2727 49.1309 80.2727C48.7303 80.2727 48.3837 80.3722 48.0911 80.571C47.8013 80.767 47.5783 81.0227 47.4221 81.3381C47.2658 81.6534 47.1877 81.9915 47.1877 82.3523V82.9318C47.1877 83.4261 47.2729 83.8452 47.4434 84.1889C47.6167 84.5298 47.8567 84.7898 48.1635 84.9688C48.4703 85.1449 48.8269 85.233 49.2331 85.233C49.4973 85.233 49.736 85.196 49.949 85.1222C50.165 85.0455 50.351 84.9318 50.5073 84.7812C50.6635 84.6278 50.7843 84.4375 50.8695 84.2102L51.8411 84.483C51.7388 84.8125 51.5669 85.1023 51.3255 85.3523C51.084 85.5994 50.7857 85.7926 50.4306 85.9318C50.0755 86.0682 49.6763 86.1364 49.2331 86.1364ZM54.4789 82.0625V86H53.4732V79.4545H54.4448V80.4773H54.53C54.6834 80.1449 54.9164 79.8778 55.2289 79.6761C55.5414 79.4716 55.9448 79.3693 56.4391 79.3693C56.8823 79.3693 57.2701 79.4602 57.6025 79.642C57.9348 79.821 58.1934 80.0938 58.378 80.4602C58.5627 80.8239 58.655 81.2841 58.655 81.8409V86H57.6493V81.9091C57.6493 81.3949 57.5158 80.9943 57.2488 80.7074C56.9817 80.4176 56.6152 80.2727 56.1493 80.2727C55.8283 80.2727 55.5414 80.3423 55.2885 80.4815C55.0385 80.6207 54.8411 80.8239 54.6962 81.0909C54.5513 81.358 54.4789 81.6818 54.4789 82.0625ZM63.3393 79.4545V80.3068H59.9473V79.4545H63.3393ZM60.9359 77.8864H61.9416V84.125C61.9416 84.4091 61.9828 84.6222 62.0652 84.7642C62.1504 84.9034 62.2583 84.9972 62.389 85.0455C62.5225 85.0909 62.6632 85.1136 62.8109 85.1136C62.9217 85.1136 63.0126 85.108 63.0836 85.0966C63.1547 85.0824 63.2115 85.071 63.2541 85.0625L63.4586 85.9659C63.3904 85.9915 63.2953 86.017 63.1731 86.0426C63.051 86.071 62.8961 86.0852 62.7086 86.0852C62.4245 86.0852 62.1461 86.0241 61.8734 85.902C61.6035 85.7798 61.3791 85.5938 61.2001 85.3438C61.024 85.0938 60.9359 84.7784 60.9359 84.3977V77.8864Z" fill="black"/>
<path d="M66.1515 49.7576H69.1818C70.186 49.7576 71 50.5716 71 51.5758V54C71 55.0042 70.186 55.8182 69.1818 55.8182H66.1515V57.6364C66.1515 58.6405 65.3375 59.4545 64.3333 59.4545H37.6667C36.6625 59.4545 35.8485 58.6405 35.8485 57.6364V55.8182H32.8182C31.814 55.8182 31 55.0042 31 54V51.5758C31 50.5716 31.814 49.7576 32.8182 49.7576H35.8485V43.697H32.8182C31.814 43.697 31 42.8829 31 41.8788V39.4545C31 38.4504 31.814 37.6364 32.8182 37.6364H35.8485V35.8182C35.8485 34.814 36.6625 34 37.6667 34H64.3333C65.3375 34 66.1515 34.814 66.1515 35.8182V37.6364H69.1818C70.186 37.6364 71 38.4504 71 39.4545V41.8788C71 42.8829 70.186 43.697 69.1818 43.697H66.1515V49.7576ZM37.6667 35.2121C37.3319 35.2121 37.0606 35.4835 37.0606 35.8182V57.6364C37.0606 57.9711 37.3319 58.2424 37.6667 58.2424H64.3333C64.6681 58.2424 64.9394 57.9711 64.9394 57.6364V35.8182C64.9394 35.4835 64.6681 35.2121 64.3333 35.2121H37.6667ZM66.1515 38.8485V42.4848H69.1818C69.5165 42.4848 69.7879 42.2135 69.7879 41.8788V39.4545C69.7879 39.1198 69.5165 38.8485 69.1818 38.8485H66.1515ZM66.1515 54.6061H69.1818C69.5165 54.6061 69.7879 54.3347 69.7879 54V51.5758C69.7879 51.241 69.5165 50.9697 69.1818 50.9697H66.1515V54.6061ZM32.8182 42.4848H35.8485V38.8485H32.8182C32.4835 38.8485 32.2121 39.1198 32.2121 39.4545V41.8788C32.2121 42.2135 32.4835 42.4848 32.8182 42.4848ZM35.8485 54.6061V50.9697H32.8182C32.4835 50.9697 32.2121 51.241 32.2121 51.5758V54C32.2121 54.3347 32.4835 54.6061 32.8182 54.6061H35.8485ZM51 55.2121C46.3139 55.2121 42.5152 51.4133 42.5152 46.7273C42.5152 42.0412 46.3139 38.2424 51 38.2424C55.6861 38.2424 59.4848 42.0412 59.4848 46.7273C59.4848 51.4133 55.6861 55.2121 51 55.2121ZM50.3939 45.8931V39.4794C47.6387 39.7067 45.319 41.4698 44.2928 43.9107L50.3939 45.8931ZM43.9184 45.0636C43.7934 45.5979 43.7273 46.1549 43.7273 46.7273C43.7273 48.9282 44.7049 50.9008 46.2497 52.2344L50.0194 47.0459L43.9184 45.0636ZM47.2298 52.9477C48.3292 53.6155 49.6197 54 51 54C52.3803 54 53.6708 53.6155 54.7702 52.9477L51 47.7584L47.2298 52.9477ZM55.7503 52.2344C57.2951 50.9008 58.2727 48.9282 58.2727 46.7273C58.2727 46.1549 58.2066 45.5979 58.0816 45.0636L51.9806 47.0459L55.7503 52.2344ZM51.6061 45.8931L57.7072 43.9107C56.681 41.4698 54.3613 39.7067 51.6061 39.4794V45.8931Z" fill="black" stroke="black" stroke-width="0.5"/>
<path d="M1 5C1 2.79086 2.79086 1 5 1H101V101H5C2.79086 101 1 99.2091 1 97V5Z" stroke="#E4E7EC"/>
</svg>
