<svg width="102" height="102" viewBox="0 0 102 102" fill="none" xmlns="http://www.w3.org/2000/svg">
<path d="M1 5C1 2.79086 2.79086 1 5 1H101V101H5C2.79086 101 1 99.2091 1 97V5Z" fill="white"/>
<path d="M30.9428 86L28.5565 77.2727H29.6303L31.4542 84.3807H31.5394L33.3974 77.2727H34.5906L36.4485 84.3807H36.5337L38.3576 77.2727H39.4315L37.0451 86H35.9542L34.0281 79.0455H33.9599L32.0337 86H30.9428ZM40.6119 86V79.4545H41.6175V86H40.6119ZM41.1232 78.3636C40.9272 78.3636 40.7582 78.2969 40.6161 78.1634C40.4769 78.0298 40.4073 77.8693 40.4073 77.6818C40.4073 77.4943 40.4769 77.3338 40.6161 77.2003C40.7582 77.0668 40.9272 77 41.1232 77C41.3192 77 41.4869 77.0668 41.6261 77.2003C41.7681 77.3338 41.8391 77.4943 41.8391 77.6818C41.8391 77.8693 41.7681 78.0298 41.6261 78.1634C41.4869 78.2969 41.3192 78.3636 41.1232 78.3636ZM44.4652 82.0625V86H43.4595V79.4545H44.4311V80.4773H44.5163C44.6697 80.1449 44.9027 79.8778 45.2152 79.6761C45.5277 79.4716 45.9311 79.3693 46.4254 79.3693C46.8686 79.3693 47.2564 79.4602 47.5888 79.642C47.9212 79.821 48.1797 80.0938 48.3643 80.4602C48.549 80.8239 48.6413 81.2841 48.6413 81.8409V86H47.6357V81.9091C47.6357 81.3949 47.5021 80.9943 47.2351 80.7074C46.968 80.4176 46.6016 80.2727 46.1357 80.2727C45.8146 80.2727 45.5277 80.3423 45.2749 80.4815C45.0249 80.6207 44.8274 80.8239 44.6825 81.0909C44.5376 81.358 44.4652 81.6818 44.4652 82.0625ZM52.9506 86.1364C52.4052 86.1364 51.9237 85.9986 51.506 85.723C51.0884 85.4446 50.7617 85.0526 50.5259 84.5469C50.2901 84.0384 50.1722 83.4375 50.1722 82.7443C50.1722 82.0568 50.2901 81.4602 50.5259 80.9545C50.7617 80.4489 51.0898 80.0582 51.5103 79.7827C51.9308 79.5071 52.4165 79.3693 52.9677 79.3693C53.3938 79.3693 53.7305 79.4403 53.9776 79.5824C54.2276 79.7216 54.418 79.8807 54.5487 80.0597C54.6822 80.2358 54.7859 80.3807 54.8597 80.4943H54.945V77.2727H55.9506V86H54.979V84.9943H54.8597C54.7859 85.1136 54.6808 85.2642 54.5444 85.446C54.408 85.625 54.2134 85.7855 53.9606 85.9276C53.7077 86.0668 53.3711 86.1364 52.9506 86.1364ZM53.087 85.233C53.4904 85.233 53.8313 85.1278 54.1097 84.9176C54.3881 84.7045 54.5998 84.4105 54.7447 84.0355C54.8896 83.6577 54.962 83.2216 54.962 82.7273C54.962 82.2386 54.891 81.8111 54.7489 81.4446C54.6069 81.0753 54.3967 80.7884 54.1183 80.5838C53.8398 80.3764 53.4961 80.2727 53.087 80.2727C52.6609 80.2727 52.3058 80.3821 52.0217 80.6009C51.7404 80.8168 51.5288 81.1108 51.3867 81.483C51.2475 81.8523 51.1779 82.267 51.1779 82.7273C51.1779 83.1932 51.2489 83.6165 51.391 83.9972C51.5359 84.375 51.7489 84.6761 52.0302 84.9006C52.3143 85.1222 52.6665 85.233 53.087 85.233ZM60.5913 86.1364C60.0004 86.1364 59.4819 85.9957 59.0359 85.7145C58.5927 85.4332 58.2461 85.0398 57.9961 84.5341C57.7489 84.0284 57.6254 83.4375 57.6254 82.7614C57.6254 82.0795 57.7489 81.4844 57.9961 80.9759C58.2461 80.4673 58.5927 80.0724 59.0359 79.7912C59.4819 79.5099 60.0004 79.3693 60.5913 79.3693C61.1822 79.3693 61.6992 79.5099 62.1424 79.7912C62.5884 80.0724 62.935 80.4673 63.1822 80.9759C63.4322 81.4844 63.5572 82.0795 63.5572 82.7614C63.5572 83.4375 63.4322 84.0284 63.1822 84.5341C62.935 85.0398 62.5884 85.4332 62.1424 85.7145C61.6992 85.9957 61.1822 86.1364 60.5913 86.1364ZM60.5913 85.233C61.0401 85.233 61.4094 85.1179 61.6992 84.8878C61.989 84.6577 62.2035 84.3551 62.3427 83.9801C62.4819 83.6051 62.5515 83.1989 62.5515 82.7614C62.5515 82.3239 62.4819 81.9162 62.3427 81.5384C62.2035 81.1605 61.989 80.8551 61.6992 80.6222C61.4094 80.3892 61.0401 80.2727 60.5913 80.2727C60.1424 80.2727 59.7731 80.3892 59.4833 80.6222C59.1935 80.8551 58.979 81.1605 58.8398 81.5384C58.7006 81.9162 58.631 82.3239 58.631 82.7614C58.631 83.1989 58.7006 83.6051 58.8398 83.9801C58.979 84.3551 59.1935 84.6577 59.4833 84.8878C59.7731 85.1179 60.1424 85.233 60.5913 85.233ZM66.3526 86L64.3583 79.4545H65.4151L66.8299 84.4659H66.8981L68.2958 79.4545H69.3697L70.7504 84.4489H70.8185L72.2333 79.4545H73.2901L71.2958 86H70.3072L68.8754 80.9716H68.7731L67.3413 86H66.3526Z" fill="black"/>
<path d="M37.5767 31.0007C37.4185 31.0156 37.2716 31.0892 37.1648 31.2069C37.0581 31.3247 36.9993 31.4781 37 31.637V58.3636C37 58.5324 37.0671 58.6943 37.1864 58.8136C37.3057 58.9329 37.4676 59 37.6364 59H64.3636C64.5324 59 64.6943 58.9329 64.8136 58.8136C64.9329 58.6943 65 58.5324 65 58.3636V31.637C65 31.4683 64.9329 31.3064 64.8136 31.1871C64.6943 31.0678 64.5324 31.0007 64.3636 31.0007H37.6364C37.6165 30.9998 37.5966 30.9998 37.5767 31.0007ZM38.2727 32.2734H63.7273V57.7273H38.2727V32.2734ZM41.3949 34.8188C41.2367 34.8337 41.0897 34.9073 40.983 35.025C40.8763 35.1428 40.8175 35.2962 40.8182 35.4551V54.5456C40.8182 54.7143 40.8852 54.8762 41.0046 54.9955C41.1239 55.1148 41.2858 55.1819 41.4546 55.1819H60.5455C60.7142 55.1819 60.8761 55.1148 60.9954 54.9955C61.1148 54.8762 61.1818 54.7143 61.1818 54.5456V35.4551C61.1818 35.2864 61.1148 35.1245 60.9954 35.0052C60.8761 34.8858 60.7142 34.8188 60.5455 34.8188H41.4546C41.4347 34.8179 41.4148 34.8179 41.3949 34.8188ZM42.0909 36.0915H50.3636V44.364H42.0909V36.0915ZM51.6364 36.0915H59.9091V44.364H51.6364V36.0915ZM42.0909 45.6367H50.3636V53.9092H42.0909V45.6367ZM51.6364 45.6367H59.9091V53.9092H51.6364V45.6367Z" fill="black" stroke="black" stroke-width="0.5"/>
<path d="M1 5C1 2.79086 2.79086 1 5 1H101V101H5C2.79086 101 1 99.2091 1 97V5Z" stroke="#E4E7EC"/>
</svg>
